<mxfile host="app.diagrams.net" agent="Mozilla/5.0 (Windows NT 10.0; Win64; x64) AppleWebKit/537.36 (KHTML, like Gecko) Chrome/140.0.0.0 Safari/537.36" version="28.2.3">
  <diagram name="Trang-1" id="pj5X5RQrHGaurTf6yeVz">
    <mxGraphModel dx="1042" dy="596" grid="1" gridSize="10" guides="1" tooltips="1" connect="1" arrows="1" fold="1" page="1" pageScale="1" pageWidth="827" pageHeight="1169" math="0" shadow="0">
      <root>
        <mxCell id="0" />
        <mxCell id="1" parent="0" />
        <mxCell id="Cyci3btW3n7RspVQRF51-3" value="" style="edgeStyle=orthogonalEdgeStyle;rounded=0;orthogonalLoop=1;jettySize=auto;html=1;" edge="1" parent="1" source="Cyci3btW3n7RspVQRF51-1" target="Cyci3btW3n7RspVQRF51-2">
          <mxGeometry relative="1" as="geometry" />
        </mxCell>
        <mxCell id="Cyci3btW3n7RspVQRF51-1" value="&lt;font style=&quot;vertical-align: inherit;&quot; dir=&quot;auto&quot;&gt;&lt;font style=&quot;vertical-align: inherit;&quot; dir=&quot;auto&quot;&gt;Start&lt;/font&gt;&lt;/font&gt;" style="ellipse;whiteSpace=wrap;html=1;" vertex="1" parent="1">
          <mxGeometry x="354" y="90" width="120" height="80" as="geometry" />
        </mxCell>
        <mxCell id="Cyci3btW3n7RspVQRF51-5" value="" style="edgeStyle=orthogonalEdgeStyle;rounded=0;orthogonalLoop=1;jettySize=auto;html=1;" edge="1" parent="1" source="Cyci3btW3n7RspVQRF51-2">
          <mxGeometry relative="1" as="geometry">
            <mxPoint x="414" y="330" as="targetPoint" />
          </mxGeometry>
        </mxCell>
        <mxCell id="Cyci3btW3n7RspVQRF51-2" value="&lt;font style=&quot;vertical-align: inherit;&quot; dir=&quot;auto&quot;&gt;&lt;font style=&quot;vertical-align: inherit;&quot; dir=&quot;auto&quot;&gt;N&lt;/font&gt;&lt;/font&gt;" style="shape=parallelogram;perimeter=parallelogramPerimeter;whiteSpace=wrap;html=1;fixedSize=1;" vertex="1" parent="1">
          <mxGeometry x="354" y="230" width="120" height="60" as="geometry" />
        </mxCell>
        <mxCell id="Cyci3btW3n7RspVQRF51-8" value="" style="edgeStyle=orthogonalEdgeStyle;rounded=0;orthogonalLoop=1;jettySize=auto;html=1;" edge="1" parent="1" source="Cyci3btW3n7RspVQRF51-6">
          <mxGeometry relative="1" as="geometry">
            <mxPoint x="414" y="420" as="targetPoint" />
          </mxGeometry>
        </mxCell>
        <mxCell id="Cyci3btW3n7RspVQRF51-6" value="&lt;font style=&quot;vertical-align: inherit;&quot; dir=&quot;auto&quot;&gt;&lt;font style=&quot;vertical-align: inherit;&quot; dir=&quot;auto&quot;&gt;Khởi tạo SUM=0 ,I=1&lt;/font&gt;&lt;/font&gt;" style="rounded=0;whiteSpace=wrap;html=1;" vertex="1" parent="1">
          <mxGeometry x="354" y="330" width="120" height="60" as="geometry" />
        </mxCell>
        <mxCell id="Cyci3btW3n7RspVQRF51-13" value="Yes" style="edgeStyle=orthogonalEdgeStyle;rounded=0;orthogonalLoop=1;jettySize=auto;html=1;" edge="1" parent="1" source="Cyci3btW3n7RspVQRF51-10" target="Cyci3btW3n7RspVQRF51-12">
          <mxGeometry relative="1" as="geometry" />
        </mxCell>
        <mxCell id="Cyci3btW3n7RspVQRF51-18" value="No" style="edgeStyle=orthogonalEdgeStyle;rounded=0;orthogonalLoop=1;jettySize=auto;html=1;" edge="1" parent="1" source="Cyci3btW3n7RspVQRF51-10" target="Cyci3btW3n7RspVQRF51-17">
          <mxGeometry relative="1" as="geometry" />
        </mxCell>
        <mxCell id="Cyci3btW3n7RspVQRF51-10" value="i nhỏ hơn hoặc bằng N?" style="rhombus;whiteSpace=wrap;html=1;" vertex="1" parent="1">
          <mxGeometry x="332" y="420" width="164" height="110" as="geometry" />
        </mxCell>
        <mxCell id="Cyci3btW3n7RspVQRF51-15" value="" style="edgeStyle=orthogonalEdgeStyle;rounded=0;orthogonalLoop=1;jettySize=auto;html=1;" edge="1" parent="1" source="Cyci3btW3n7RspVQRF51-12" target="Cyci3btW3n7RspVQRF51-14">
          <mxGeometry relative="1" as="geometry" />
        </mxCell>
        <mxCell id="Cyci3btW3n7RspVQRF51-12" value="SUM=SUM+I" style="rounded=0;whiteSpace=wrap;html=1;" vertex="1" parent="1">
          <mxGeometry x="580" y="445" width="120" height="60" as="geometry" />
        </mxCell>
        <mxCell id="Cyci3btW3n7RspVQRF51-16" style="edgeStyle=orthogonalEdgeStyle;rounded=0;orthogonalLoop=1;jettySize=auto;html=1;entryX=0.5;entryY=1;entryDx=0;entryDy=0;" edge="1" parent="1" source="Cyci3btW3n7RspVQRF51-14" target="Cyci3btW3n7RspVQRF51-10">
          <mxGeometry relative="1" as="geometry" />
        </mxCell>
        <mxCell id="Cyci3btW3n7RspVQRF51-14" value="i=i+1" style="whiteSpace=wrap;html=1;rounded=0;" vertex="1" parent="1">
          <mxGeometry x="580" y="585" width="120" height="60" as="geometry" />
        </mxCell>
        <mxCell id="Cyci3btW3n7RspVQRF51-21" style="edgeStyle=orthogonalEdgeStyle;rounded=0;orthogonalLoop=1;jettySize=auto;html=1;" edge="1" parent="1" source="Cyci3btW3n7RspVQRF51-17" target="Cyci3btW3n7RspVQRF51-20">
          <mxGeometry relative="1" as="geometry">
            <Array as="points">
              <mxPoint x="160" y="730" />
            </Array>
          </mxGeometry>
        </mxCell>
        <mxCell id="Cyci3btW3n7RspVQRF51-17" value="in SUM" style="whiteSpace=wrap;html=1;" vertex="1" parent="1">
          <mxGeometry x="110" y="445" width="120" height="60" as="geometry" />
        </mxCell>
        <mxCell id="Cyci3btW3n7RspVQRF51-20" value="end" style="ellipse;whiteSpace=wrap;html=1;" vertex="1" parent="1">
          <mxGeometry x="350" y="690" width="120" height="80" as="geometry" />
        </mxCell>
      </root>
    </mxGraphModel>
  </diagram>
</mxfile>
